<svg width="350" height="350" viewBox="0 0 350 350" xmlns="http://www.w3.org/2000/svg">
    <defs>
        <linearGradient id="shieldGradient" x1="0%" y1="0%" x2="100%" y2="100%">
            <stop offset="0%" stop-color="#2962ff" />
            <stop offset="100%" stop-color="#0039cb" />
        </linearGradient>
        <filter id="shadow" x="-20%" y="-20%" width="140%" height="140%">
            <feDropShadow dx="0" dy="10" stdDeviation="10" flood-color="#000" flood-opacity="0.3"/>
        </filter>
    </defs>
    
    <!-- Shield Base -->
    <path d="M175,30 L300,75 C300,75 300,160 300,200 C300,280 175,320 175,320 C175,320 50,280 50,200 C50,160 50,75 50,75 L175,30 Z" 
          fill="url(#shieldGradient)" filter="url(#shadow)"/>
    
    <!-- Shield Inner -->
    <path d="M175,50 L275,85 C275,85 275,155 275,190 C275,250 175,290 175,290 C175,290 75,250 75,190 C75,155 75,85 75,85 L175,50 Z" 
          fill="#ffffff" opacity="0.2"/>
    
    <!-- Shield Icon -->
    <circle cx="175" cy="170" r="60" fill="#ffffff"/>
    
    <!-- Lock Icon -->
    <rect x="155" y="165" width="40" height="35" rx="5" fill="#2962ff"/>
    <rect x="165" y="140" width="20" height="30" rx="10" stroke="#2962ff" stroke-width="8" fill="none"/>
    
    <!-- Alert Badge -->
    <circle cx="235" cy="115" r="25" fill="#d32f2f"/>
    <text x="235" y="125" font-family="Arial" font-size="30" font-weight="bold" fill="#ffffff" text-anchor="middle">!</text>
</svg>